<mxfile host="app.diagrams.net" modified="2023-05-19T03:18:41.027Z" agent="Mozilla/5.0 (Windows NT 10.0; Win64; x64) AppleWebKit/537.36 (KHTML, like Gecko) Chrome/113.0.0.0 Safari/537.36" etag="h3u-iCt7FniyxOmf6QCp" version="21.3.0" type="device">
  <diagram id="R2lEEEUBdFMjLlhIrx00" name="Page-1">
    <mxGraphModel dx="2284" dy="1902" grid="1" gridSize="59" guides="1" tooltips="1" connect="0" arrows="1" fold="1" page="1" pageScale="1" pageWidth="850" pageHeight="1100" background="#ffffff" math="0" shadow="0" extFonts="Permanent Marker^https://fonts.googleapis.com/css?family=Permanent+Marker">
      <root>
        <mxCell id="0" />
        <mxCell id="1" parent="0" />
        <mxCell id="I1Eal8p1mosymjfn8M6k-5" value="&lt;font size=&quot;3&quot;&gt;Bank&lt;/font&gt;" style="rounded=0;whiteSpace=wrap;html=1;" parent="1" vertex="1">
          <mxGeometry x="194" y="130" width="120" height="60" as="geometry" />
        </mxCell>
        <mxCell id="I1Eal8p1mosymjfn8M6k-6" value="Name" style="ellipse;whiteSpace=wrap;html=1;" parent="1" vertex="1">
          <mxGeometry x="175" y="17" width="100" height="50" as="geometry" />
        </mxCell>
        <mxCell id="I1Eal8p1mosymjfn8M6k-8" value="" style="endArrow=none;html=1;rounded=0;exitX=0.5;exitY=0;exitDx=0;exitDy=0;" parent="1" source="I1Eal8p1mosymjfn8M6k-5" target="I1Eal8p1mosymjfn8M6k-6" edge="1">
          <mxGeometry width="50" height="50" relative="1" as="geometry">
            <mxPoint x="220" y="130" as="sourcePoint" />
            <mxPoint x="270" y="80" as="targetPoint" />
          </mxGeometry>
        </mxCell>
        <mxCell id="I1Eal8p1mosymjfn8M6k-11" value="" style="endArrow=none;html=1;rounded=0;entryX=0.5;entryY=1;entryDx=0;entryDy=0;exitX=0.5;exitY=0;exitDx=0;exitDy=0;" parent="1" source="I1Eal8p1mosymjfn8M6k-5" target="I1Eal8p1mosymjfn8M6k-14" edge="1">
          <mxGeometry width="50" height="50" relative="1" as="geometry">
            <mxPoint x="250" y="120" as="sourcePoint" />
            <mxPoint x="310" y="80" as="targetPoint" />
          </mxGeometry>
        </mxCell>
        <mxCell id="I1Eal8p1mosymjfn8M6k-14" value="Address" style="ellipse;whiteSpace=wrap;html=1;" parent="1" vertex="1">
          <mxGeometry x="310" y="10" width="100" height="50" as="geometry" />
        </mxCell>
        <mxCell id="I1Eal8p1mosymjfn8M6k-15" value="City" style="ellipse;whiteSpace=wrap;html=1;" parent="1" vertex="1">
          <mxGeometry x="340" y="-110" width="100" height="50" as="geometry" />
        </mxCell>
        <mxCell id="I1Eal8p1mosymjfn8M6k-16" value="BuildingNumber" style="ellipse;whiteSpace=wrap;html=1;" parent="1" vertex="1">
          <mxGeometry x="470" y="30" width="100" height="50" as="geometry" />
        </mxCell>
        <mxCell id="I1Eal8p1mosymjfn8M6k-17" value="Street" style="ellipse;whiteSpace=wrap;html=1;" parent="1" vertex="1">
          <mxGeometry x="470" y="-100" width="100" height="50" as="geometry" />
        </mxCell>
        <mxCell id="I1Eal8p1mosymjfn8M6k-18" value="Country" style="ellipse;whiteSpace=wrap;html=1;" parent="1" vertex="1">
          <mxGeometry x="480" y="-30" width="100" height="50" as="geometry" />
        </mxCell>
        <mxCell id="I1Eal8p1mosymjfn8M6k-22" value="" style="endArrow=none;html=1;rounded=0;entryX=0.29;entryY=0.94;entryDx=0;entryDy=0;entryPerimeter=0;" parent="1" source="I1Eal8p1mosymjfn8M6k-14" target="I1Eal8p1mosymjfn8M6k-15" edge="1">
          <mxGeometry width="50" height="50" relative="1" as="geometry">
            <mxPoint x="360" y="8" as="sourcePoint" />
            <mxPoint x="389" y="-60" as="targetPoint" />
          </mxGeometry>
        </mxCell>
        <mxCell id="I1Eal8p1mosymjfn8M6k-23" value="" style="endArrow=none;html=1;rounded=0;exitX=0.57;exitY=-0.02;exitDx=0;exitDy=0;entryX=0;entryY=1;entryDx=0;entryDy=0;exitPerimeter=0;" parent="1" source="I1Eal8p1mosymjfn8M6k-14" target="I1Eal8p1mosymjfn8M6k-17" edge="1">
          <mxGeometry width="50" height="50" relative="1" as="geometry">
            <mxPoint x="396" y="17" as="sourcePoint" />
            <mxPoint x="425" y="-51" as="targetPoint" />
          </mxGeometry>
        </mxCell>
        <mxCell id="I1Eal8p1mosymjfn8M6k-24" value="" style="endArrow=none;html=1;rounded=0;exitX=0.59;exitY=0.02;exitDx=0;exitDy=0;entryX=0;entryY=0.5;entryDx=0;entryDy=0;exitPerimeter=0;" parent="1" source="I1Eal8p1mosymjfn8M6k-14" target="I1Eal8p1mosymjfn8M6k-18" edge="1">
          <mxGeometry width="50" height="50" relative="1" as="geometry">
            <mxPoint x="396" y="50" as="sourcePoint" />
            <mxPoint x="425" y="-18" as="targetPoint" />
          </mxGeometry>
        </mxCell>
        <mxCell id="I1Eal8p1mosymjfn8M6k-25" value="" style="endArrow=none;html=1;rounded=0;exitX=0.99;exitY=0.76;exitDx=0;exitDy=0;entryX=0;entryY=0.5;entryDx=0;entryDy=0;exitPerimeter=0;" parent="1" source="I1Eal8p1mosymjfn8M6k-14" target="I1Eal8p1mosymjfn8M6k-16" edge="1">
          <mxGeometry width="50" height="50" relative="1" as="geometry">
            <mxPoint x="275" y="67" as="sourcePoint" />
            <mxPoint x="304" y="-1" as="targetPoint" />
          </mxGeometry>
        </mxCell>
        <mxCell id="I1Eal8p1mosymjfn8M6k-26" value="&lt;font size=&quot;3&quot;&gt;Branch&lt;/font&gt;" style="rounded=0;whiteSpace=wrap;html=1;" parent="1" vertex="1">
          <mxGeometry x="194" y="430" width="120" height="60" as="geometry" />
        </mxCell>
        <mxCell id="I1Eal8p1mosymjfn8M6k-31" value="" style="endArrow=none;html=1;rounded=0;entryX=0.02;entryY=0.68;entryDx=0;entryDy=0;exitX=1;exitY=0.5;exitDx=0;exitDy=0;entryPerimeter=0;" parent="1" source="I1Eal8p1mosymjfn8M6k-26" target="I1Eal8p1mosymjfn8M6k-34" edge="1">
          <mxGeometry width="50" height="50" relative="1" as="geometry">
            <mxPoint x="194" y="420" as="sourcePoint" />
            <mxPoint x="254" y="380" as="targetPoint" />
          </mxGeometry>
        </mxCell>
        <mxCell id="I1Eal8p1mosymjfn8M6k-34" value="Address" style="ellipse;whiteSpace=wrap;html=1;" parent="1" vertex="1">
          <mxGeometry x="344" y="390" width="100" height="50" as="geometry" />
        </mxCell>
        <mxCell id="I1Eal8p1mosymjfn8M6k-35" value="City" style="ellipse;whiteSpace=wrap;html=1;" parent="1" vertex="1">
          <mxGeometry x="384" y="230" width="100" height="50" as="geometry" />
        </mxCell>
        <mxCell id="I1Eal8p1mosymjfn8M6k-36" value="BuildingNumber" style="ellipse;whiteSpace=wrap;html=1;" parent="1" vertex="1">
          <mxGeometry x="514" y="410" width="100" height="50" as="geometry" />
        </mxCell>
        <mxCell id="I1Eal8p1mosymjfn8M6k-37" value="Street" style="ellipse;whiteSpace=wrap;html=1;" parent="1" vertex="1">
          <mxGeometry x="494" y="270" width="100" height="50" as="geometry" />
        </mxCell>
        <mxCell id="I1Eal8p1mosymjfn8M6k-38" value="Country" style="ellipse;whiteSpace=wrap;html=1;" parent="1" vertex="1">
          <mxGeometry x="534" y="340" width="100" height="50" as="geometry" />
        </mxCell>
        <mxCell id="I1Eal8p1mosymjfn8M6k-39" value="" style="endArrow=none;html=1;rounded=0;entryX=0.5;entryY=1;entryDx=0;entryDy=0;exitX=0.5;exitY=0;exitDx=0;exitDy=0;" parent="1" source="I1Eal8p1mosymjfn8M6k-34" target="I1Eal8p1mosymjfn8M6k-35" edge="1">
          <mxGeometry width="50" height="50" relative="1" as="geometry">
            <mxPoint x="512.907106700826" y="470.6230246018149" as="sourcePoint" />
            <mxPoint x="443" y="317" as="targetPoint" />
            <Array as="points" />
          </mxGeometry>
        </mxCell>
        <mxCell id="I1Eal8p1mosymjfn8M6k-40" value="" style="endArrow=none;html=1;rounded=0;" parent="1" source="I1Eal8p1mosymjfn8M6k-34" target="I1Eal8p1mosymjfn8M6k-37" edge="1">
          <mxGeometry width="50" height="50" relative="1" as="geometry">
            <mxPoint x="531" y="469" as="sourcePoint" />
            <mxPoint x="558.6446609406726" y="322.67766952966394" as="targetPoint" />
          </mxGeometry>
        </mxCell>
        <mxCell id="I1Eal8p1mosymjfn8M6k-41" value="" style="endArrow=none;html=1;rounded=0;exitX=0.93;exitY=0.22;exitDx=0;exitDy=0;entryX=0;entryY=0.5;entryDx=0;entryDy=0;exitPerimeter=0;" parent="1" source="I1Eal8p1mosymjfn8M6k-34" target="I1Eal8p1mosymjfn8M6k-38" edge="1">
          <mxGeometry width="50" height="50" relative="1" as="geometry">
            <mxPoint x="533" y="471" as="sourcePoint" />
            <mxPoint x="499" y="362" as="targetPoint" />
          </mxGeometry>
        </mxCell>
        <mxCell id="I1Eal8p1mosymjfn8M6k-42" value="" style="endArrow=none;html=1;rounded=0;exitX=0.99;exitY=0.76;exitDx=0;exitDy=0;entryX=0;entryY=0.5;entryDx=0;entryDy=0;exitPerimeter=0;" parent="1" source="I1Eal8p1mosymjfn8M6k-34" target="I1Eal8p1mosymjfn8M6k-36" edge="1">
          <mxGeometry width="50" height="50" relative="1" as="geometry">
            <mxPoint x="219" y="367" as="sourcePoint" />
            <mxPoint x="248" y="299" as="targetPoint" />
          </mxGeometry>
        </mxCell>
        <mxCell id="I1Eal8p1mosymjfn8M6k-43" value="" style="endArrow=none;html=1;rounded=0;" parent="1" source="I1Eal8p1mosymjfn8M6k-26" target="I1Eal8p1mosymjfn8M6k-44" edge="1">
          <mxGeometry width="50" height="50" relative="1" as="geometry">
            <mxPoint x="214" y="420" as="sourcePoint" />
            <mxPoint x="264" y="370" as="targetPoint" />
          </mxGeometry>
        </mxCell>
        <mxCell id="I1Eal8p1mosymjfn8M6k-44" value="&lt;u&gt;BranchNumber&lt;/u&gt;" style="ellipse;whiteSpace=wrap;html=1;" parent="1" vertex="1">
          <mxGeometry x="344" y="490" width="120" height="50" as="geometry" />
        </mxCell>
        <mxCell id="I1Eal8p1mosymjfn8M6k-47" value="belongs to" style="rhombus;whiteSpace=wrap;html=1;rounded=0;" parent="1" vertex="1">
          <mxGeometry x="214" y="270" width="80" height="50" as="geometry" />
        </mxCell>
        <mxCell id="I1Eal8p1mosymjfn8M6k-50" value="" style="endArrow=none;html=1;rounded=0;exitX=0.5;exitY=0;exitDx=0;exitDy=0;" parent="1" source="I1Eal8p1mosymjfn8M6k-47" target="I1Eal8p1mosymjfn8M6k-5" edge="1">
          <mxGeometry width="50" height="50" relative="1" as="geometry">
            <mxPoint x="220" y="300" as="sourcePoint" />
            <mxPoint x="260" y="190" as="targetPoint" />
            <Array as="points" />
          </mxGeometry>
        </mxCell>
        <mxCell id="I1Eal8p1mosymjfn8M6k-52" value="1" style="edgeLabel;html=1;align=center;verticalAlign=middle;resizable=0;points=[];" parent="I1Eal8p1mosymjfn8M6k-50" vertex="1" connectable="0">
          <mxGeometry x="0.2405" y="2" relative="1" as="geometry">
            <mxPoint x="2" as="offset" />
          </mxGeometry>
        </mxCell>
        <mxCell id="I1Eal8p1mosymjfn8M6k-51" value="" style="endArrow=none;html=1;rounded=0;entryX=0.5;entryY=1;entryDx=0;entryDy=0;" parent="1" source="I1Eal8p1mosymjfn8M6k-26" target="I1Eal8p1mosymjfn8M6k-47" edge="1">
          <mxGeometry width="50" height="50" relative="1" as="geometry">
            <mxPoint x="120" y="400" as="sourcePoint" />
            <mxPoint x="160" y="290" as="targetPoint" />
            <Array as="points" />
          </mxGeometry>
        </mxCell>
        <mxCell id="I1Eal8p1mosymjfn8M6k-53" value="M" style="edgeLabel;html=1;align=center;verticalAlign=middle;resizable=0;points=[];" parent="I1Eal8p1mosymjfn8M6k-51" vertex="1" connectable="0">
          <mxGeometry x="-0.4528" relative="1" as="geometry">
            <mxPoint as="offset" />
          </mxGeometry>
        </mxCell>
        <mxCell id="I1Eal8p1mosymjfn8M6k-54" value="" style="endArrow=none;html=1;rounded=0;exitX=1;exitY=0.5;exitDx=0;exitDy=0;" parent="1" source="I1Eal8p1mosymjfn8M6k-55" target="I1Eal8p1mosymjfn8M6k-26" edge="1">
          <mxGeometry width="50" height="50" relative="1" as="geometry">
            <mxPoint x="60" y="460" as="sourcePoint" />
            <mxPoint x="140" y="450" as="targetPoint" />
          </mxGeometry>
        </mxCell>
        <mxCell id="I1Eal8p1mosymjfn8M6k-122" value="1" style="edgeLabel;html=1;align=center;verticalAlign=middle;resizable=0;points=[];" parent="I1Eal8p1mosymjfn8M6k-54" vertex="1" connectable="0">
          <mxGeometry x="0.6374" relative="1" as="geometry">
            <mxPoint as="offset" />
          </mxGeometry>
        </mxCell>
        <mxCell id="I1Eal8p1mosymjfn8M6k-55" value="has" style="rhombus;whiteSpace=wrap;html=1;" parent="1" vertex="1">
          <mxGeometry x="-10" y="430" width="90" height="60" as="geometry" />
        </mxCell>
        <mxCell id="I1Eal8p1mosymjfn8M6k-56" value="&lt;font size=&quot;3&quot;&gt;Customer&lt;/font&gt;" style="rounded=0;whiteSpace=wrap;html=1;" parent="1" vertex="1">
          <mxGeometry x="-240" y="430" width="120" height="60" as="geometry" />
        </mxCell>
        <mxCell id="I1Eal8p1mosymjfn8M6k-57" value="Name" style="ellipse;whiteSpace=wrap;html=1;" parent="1" vertex="1">
          <mxGeometry x="-360" y="435" width="100" height="50" as="geometry" />
        </mxCell>
        <mxCell id="I1Eal8p1mosymjfn8M6k-59" value="" style="endArrow=none;html=1;rounded=0;exitX=0;exitY=0.5;exitDx=0;exitDy=0;entryX=0.75;entryY=0;entryDx=0;entryDy=0;entryPerimeter=0;" parent="1" source="I1Eal8p1mosymjfn8M6k-57" target="I1Eal8p1mosymjfn8M6k-63" edge="1">
          <mxGeometry width="50" height="50" relative="1" as="geometry">
            <mxPoint x="-304.0000000000002" y="671" as="sourcePoint" />
            <mxPoint x="-214.99999999999977" y="720" as="targetPoint" />
          </mxGeometry>
        </mxCell>
        <mxCell id="I1Eal8p1mosymjfn8M6k-60" value="" style="endArrow=none;html=1;rounded=0;entryX=1;entryY=0.5;entryDx=0;entryDy=0;exitX=0;exitY=0.5;exitDx=0;exitDy=0;" parent="1" source="I1Eal8p1mosymjfn8M6k-57" target="I1Eal8p1mosymjfn8M6k-62" edge="1">
          <mxGeometry width="50" height="50" relative="1" as="geometry">
            <mxPoint x="-380" y="540" as="sourcePoint" />
            <mxPoint x="-433.32997156407646" y="652.613197658337" as="targetPoint" />
          </mxGeometry>
        </mxCell>
        <mxCell id="I1Eal8p1mosymjfn8M6k-61" value="" style="endArrow=none;html=1;rounded=0;entryX=0.5;entryY=1;entryDx=0;entryDy=0;exitX=0;exitY=0.75;exitDx=0;exitDy=0;" parent="1" source="I1Eal8p1mosymjfn8M6k-56" target="I1Eal8p1mosymjfn8M6k-64" edge="1">
          <mxGeometry width="50" height="50" relative="1" as="geometry">
            <mxPoint x="-270" y="410" as="sourcePoint" />
            <mxPoint x="-210" y="370" as="targetPoint" />
          </mxGeometry>
        </mxCell>
        <mxCell id="I1Eal8p1mosymjfn8M6k-62" value="FName" style="ellipse;whiteSpace=wrap;html=1;" parent="1" vertex="1">
          <mxGeometry x="-530" y="450" width="100" height="50" as="geometry" />
        </mxCell>
        <mxCell id="I1Eal8p1mosymjfn8M6k-63" value="LName" style="ellipse;whiteSpace=wrap;html=1;" parent="1" vertex="1">
          <mxGeometry x="-480" y="555" width="100" height="50" as="geometry" />
        </mxCell>
        <mxCell id="I1Eal8p1mosymjfn8M6k-64" value="&lt;u&gt;SSN&lt;/u&gt;" style="ellipse;whiteSpace=wrap;html=1;" parent="1" vertex="1">
          <mxGeometry x="-350" y="510" width="100" height="50" as="geometry" />
        </mxCell>
        <mxCell id="I1Eal8p1mosymjfn8M6k-65" value="City" style="ellipse;whiteSpace=wrap;html=1;" parent="1" vertex="1">
          <mxGeometry x="-425" y="280" width="100" height="50" as="geometry" />
        </mxCell>
        <mxCell id="I1Eal8p1mosymjfn8M6k-66" value="BuildingNumber" style="ellipse;whiteSpace=wrap;html=1;" parent="1" vertex="1">
          <mxGeometry x="-525" y="370" width="100" height="50" as="geometry" />
        </mxCell>
        <mxCell id="I1Eal8p1mosymjfn8M6k-67" value="Street" style="ellipse;whiteSpace=wrap;html=1;" parent="1" vertex="1">
          <mxGeometry x="-325" y="270" width="100" height="50" as="geometry" />
        </mxCell>
        <mxCell id="I1Eal8p1mosymjfn8M6k-68" value="Country" style="ellipse;whiteSpace=wrap;html=1;" parent="1" vertex="1">
          <mxGeometry x="-510" y="310" width="100" height="50" as="geometry" />
        </mxCell>
        <mxCell id="I1Eal8p1mosymjfn8M6k-69" value="" style="endArrow=none;html=1;rounded=0;exitX=0.5;exitY=0;exitDx=0;exitDy=0;" parent="1" source="I1Eal8p1mosymjfn8M6k-76" edge="1">
          <mxGeometry width="50" height="50" relative="1" as="geometry">
            <mxPoint x="-330" y="370" as="sourcePoint" />
            <mxPoint x="-360" y="330" as="targetPoint" />
          </mxGeometry>
        </mxCell>
        <mxCell id="I1Eal8p1mosymjfn8M6k-70" value="" style="endArrow=none;html=1;rounded=0;exitX=0.5;exitY=0;exitDx=0;exitDy=0;" parent="1" source="I1Eal8p1mosymjfn8M6k-76" target="I1Eal8p1mosymjfn8M6k-67" edge="1">
          <mxGeometry width="50" height="50" relative="1" as="geometry">
            <mxPoint x="-122" y="621" as="sourcePoint" />
            <mxPoint x="-93" y="553" as="targetPoint" />
          </mxGeometry>
        </mxCell>
        <mxCell id="I1Eal8p1mosymjfn8M6k-71" value="" style="endArrow=none;html=1;rounded=0;exitX=0.5;exitY=0;exitDx=0;exitDy=0;" parent="1" source="I1Eal8p1mosymjfn8M6k-76" target="I1Eal8p1mosymjfn8M6k-68" edge="1">
          <mxGeometry width="50" height="50" relative="1" as="geometry">
            <mxPoint x="-260" y="610" as="sourcePoint" />
            <mxPoint x="-93" y="586" as="targetPoint" />
          </mxGeometry>
        </mxCell>
        <mxCell id="I1Eal8p1mosymjfn8M6k-72" value="" style="endArrow=none;html=1;rounded=0;exitX=0.425;exitY=-0.043;exitDx=0;exitDy=0;exitPerimeter=0;" parent="1" source="I1Eal8p1mosymjfn8M6k-76" target="I1Eal8p1mosymjfn8M6k-66" edge="1">
          <mxGeometry width="50" height="50" relative="1" as="geometry">
            <mxPoint x="-243" y="671" as="sourcePoint" />
            <mxPoint x="-214" y="603" as="targetPoint" />
          </mxGeometry>
        </mxCell>
        <mxCell id="I1Eal8p1mosymjfn8M6k-73" value="" style="endArrow=none;html=1;rounded=0;entryX=0.065;entryY=0.506;entryDx=0;entryDy=0;entryPerimeter=0;exitX=1;exitY=0.5;exitDx=0;exitDy=0;shape=link;" parent="1" source="I1Eal8p1mosymjfn8M6k-56" target="I1Eal8p1mosymjfn8M6k-55" edge="1">
          <mxGeometry width="50" height="50" relative="1" as="geometry">
            <mxPoint x="-110" y="460" as="sourcePoint" />
            <mxPoint x="-40" y="430" as="targetPoint" />
          </mxGeometry>
        </mxCell>
        <mxCell id="I1Eal8p1mosymjfn8M6k-123" value="M" style="edgeLabel;html=1;align=center;verticalAlign=middle;resizable=0;points=[];" parent="I1Eal8p1mosymjfn8M6k-73" vertex="1" connectable="0">
          <mxGeometry x="-0.7267" y="1" relative="1" as="geometry">
            <mxPoint as="offset" />
          </mxGeometry>
        </mxCell>
        <mxCell id="I1Eal8p1mosymjfn8M6k-74" value="" style="endArrow=none;html=1;rounded=0;" parent="1" target="I1Eal8p1mosymjfn8M6k-56" edge="1">
          <mxGeometry width="50" height="50" relative="1" as="geometry">
            <mxPoint x="-260" y="460" as="sourcePoint" />
            <mxPoint x="-445" y="460" as="targetPoint" />
          </mxGeometry>
        </mxCell>
        <mxCell id="I1Eal8p1mosymjfn8M6k-75" value="" style="endArrow=none;html=1;rounded=0;" parent="1" source="I1Eal8p1mosymjfn8M6k-56" target="I1Eal8p1mosymjfn8M6k-76" edge="1">
          <mxGeometry width="50" height="50" relative="1" as="geometry">
            <mxPoint x="-450" y="470" as="sourcePoint" />
            <mxPoint x="-400" y="420" as="targetPoint" />
          </mxGeometry>
        </mxCell>
        <mxCell id="I1Eal8p1mosymjfn8M6k-76" value="Address" style="ellipse;whiteSpace=wrap;html=1;" parent="1" vertex="1">
          <mxGeometry x="-360" y="370" width="100" height="50" as="geometry" />
        </mxCell>
        <mxCell id="I1Eal8p1mosymjfn8M6k-83" value="" style="endArrow=none;html=1;rounded=0;exitX=0.5;exitY=1;exitDx=0;exitDy=0;" parent="1" source="I1Eal8p1mosymjfn8M6k-114" target="I1Eal8p1mosymjfn8M6k-56" edge="1">
          <mxGeometry width="50" height="50" relative="1" as="geometry">
            <mxPoint x="-180" y="320" as="sourcePoint" />
            <mxPoint x="-219" y="410" as="targetPoint" />
          </mxGeometry>
        </mxCell>
        <mxCell id="I1Eal8p1mosymjfn8M6k-84" value="request" style="rhombus;whiteSpace=wrap;html=1;rounded=0;" parent="1" vertex="1">
          <mxGeometry x="-220" y="260" width="80" height="50" as="geometry" />
        </mxCell>
        <mxCell id="I1Eal8p1mosymjfn8M6k-88" value="M" style="endArrow=none;html=1;rounded=0;entryX=0.5;entryY=0;entryDx=0;entryDy=0;shape=link;" parent="1" source="I1Eal8p1mosymjfn8M6k-198" target="I1Eal8p1mosymjfn8M6k-84" edge="1">
          <mxGeometry x="-0.7143" width="50" height="50" relative="1" as="geometry">
            <mxPoint x="-180" y="140" as="sourcePoint" />
            <mxPoint x="-209" y="292" as="targetPoint" />
            <mxPoint as="offset" />
          </mxGeometry>
        </mxCell>
        <mxCell id="I1Eal8p1mosymjfn8M6k-90" value="" style="endArrow=none;html=1;rounded=0;entryX=0.5;entryY=1;entryDx=0;entryDy=0;exitX=0.5;exitY=0;exitDx=0;exitDy=0;" parent="1" source="I1Eal8p1mosymjfn8M6k-198" target="I1Eal8p1mosymjfn8M6k-91" edge="1">
          <mxGeometry width="50" height="50" relative="1" as="geometry">
            <mxPoint x="-180" y="80" as="sourcePoint" />
            <mxPoint x="-200" y="10" as="targetPoint" />
          </mxGeometry>
        </mxCell>
        <mxCell id="I1Eal8p1mosymjfn8M6k-91" value="LoanAmount" style="ellipse;whiteSpace=wrap;html=1;" parent="1" vertex="1">
          <mxGeometry x="-225" y="29" width="100" height="50" as="geometry" />
        </mxCell>
        <mxCell id="I1Eal8p1mosymjfn8M6k-92" value="LoanTyoe" style="ellipse;whiteSpace=wrap;html=1;" parent="1" vertex="1">
          <mxGeometry x="-110" y="29" width="100" height="50" as="geometry" />
        </mxCell>
        <mxCell id="I1Eal8p1mosymjfn8M6k-93" value="" style="endArrow=none;html=1;rounded=0;entryX=0.087;entryY=0.749;entryDx=0;entryDy=0;entryPerimeter=0;exitX=0.5;exitY=0;exitDx=0;exitDy=0;" parent="1" source="I1Eal8p1mosymjfn8M6k-198" target="I1Eal8p1mosymjfn8M6k-92" edge="1">
          <mxGeometry width="50" height="50" relative="1" as="geometry">
            <mxPoint x="-180" y="80" as="sourcePoint" />
            <mxPoint x="-206" y="-71" as="targetPoint" />
          </mxGeometry>
        </mxCell>
        <mxCell id="I1Eal8p1mosymjfn8M6k-94" value="" style="endArrow=none;html=1;rounded=0;exitX=0.5;exitY=0;exitDx=0;exitDy=0;entryX=0.5;entryY=1;entryDx=0;entryDy=0;" parent="1" source="I1Eal8p1mosymjfn8M6k-198" target="I1Eal8p1mosymjfn8M6k-199" edge="1">
          <mxGeometry width="50" height="50" relative="1" as="geometry">
            <mxPoint x="-208.57142857142844" y="80" as="sourcePoint" />
            <mxPoint x="-250.8614241292821" y="26.8539319030383" as="targetPoint" />
          </mxGeometry>
        </mxCell>
        <mxCell id="I1Eal8p1mosymjfn8M6k-115" value="N" style="endArrow=none;html=1;rounded=0;exitX=0.5;exitY=1;exitDx=0;exitDy=0;entryX=0.5;entryY=1;entryDx=0;entryDy=0;" parent="1" source="I1Eal8p1mosymjfn8M6k-84" target="I1Eal8p1mosymjfn8M6k-114" edge="1">
          <mxGeometry x="0.5" width="50" height="50" relative="1" as="geometry">
            <mxPoint x="-180" y="350" as="sourcePoint" />
            <mxPoint x="-180" y="430" as="targetPoint" />
            <mxPoint as="offset" />
          </mxGeometry>
        </mxCell>
        <mxCell id="I1Eal8p1mosymjfn8M6k-114" value="" style="ellipse;whiteSpace=wrap;html=1;aspect=fixed;" parent="1" vertex="1">
          <mxGeometry x="-185" y="420" width="10" height="10" as="geometry" />
        </mxCell>
        <mxCell id="I1Eal8p1mosymjfn8M6k-117" value="offer" style="shape=rhombus;perimeter=rhombusPerimeter;whiteSpace=wrap;html=1;align=center;" parent="1" vertex="1">
          <mxGeometry x="-50" y="210" width="120" height="60" as="geometry" />
        </mxCell>
        <mxCell id="I1Eal8p1mosymjfn8M6k-118" value="" style="endArrow=none;html=1;rounded=0;exitX=1;exitY=1;exitDx=0;exitDy=0;entryX=0;entryY=0;entryDx=0;entryDy=0;" parent="1" source="I1Eal8p1mosymjfn8M6k-117" target="I1Eal8p1mosymjfn8M6k-26" edge="1">
          <mxGeometry relative="1" as="geometry">
            <mxPoint x="40" y="330" as="sourcePoint" />
            <mxPoint x="200" y="330" as="targetPoint" />
          </mxGeometry>
        </mxCell>
        <mxCell id="I1Eal8p1mosymjfn8M6k-121" value="1" style="edgeLabel;html=1;align=center;verticalAlign=middle;resizable=0;points=[];" parent="I1Eal8p1mosymjfn8M6k-118" vertex="1" connectable="0">
          <mxGeometry x="0.8375" y="-1" relative="1" as="geometry">
            <mxPoint as="offset" />
          </mxGeometry>
        </mxCell>
        <mxCell id="I1Eal8p1mosymjfn8M6k-119" value="" style="endArrow=none;html=1;rounded=0;exitX=1;exitY=0.5;exitDx=0;exitDy=0;shape=link;entryX=0.39;entryY=0.149;entryDx=0;entryDy=0;entryPerimeter=0;" parent="1" source="I1Eal8p1mosymjfn8M6k-198" target="I1Eal8p1mosymjfn8M6k-117" edge="1">
          <mxGeometry relative="1" as="geometry">
            <mxPoint x="-120" y="110" as="sourcePoint" />
            <mxPoint x="7.238805970149315" y="183.88059701492512" as="targetPoint" />
          </mxGeometry>
        </mxCell>
        <mxCell id="I1Eal8p1mosymjfn8M6k-120" value="&lt;font style=&quot;font-size: 14px;&quot;&gt;M&lt;/font&gt;" style="edgeLabel;html=1;align=center;verticalAlign=middle;resizable=0;points=[];" parent="I1Eal8p1mosymjfn8M6k-119" vertex="1" connectable="0">
          <mxGeometry x="-0.7873" y="-1" relative="1" as="geometry">
            <mxPoint as="offset" />
          </mxGeometry>
        </mxCell>
        <mxCell id="I1Eal8p1mosymjfn8M6k-125" value="" style="endArrow=none;html=1;rounded=0;exitX=0.5;exitY=0;exitDx=0;exitDy=0;shape=link;" parent="1" source="I1Eal8p1mosymjfn8M6k-127" edge="1">
          <mxGeometry width="50" height="50" relative="1" as="geometry">
            <mxPoint x="260" y="610" as="sourcePoint" />
            <mxPoint x="260" y="490" as="targetPoint" />
          </mxGeometry>
        </mxCell>
        <mxCell id="I1Eal8p1mosymjfn8M6k-131" value="1" style="edgeLabel;html=1;align=center;verticalAlign=middle;resizable=0;points=[];" parent="I1Eal8p1mosymjfn8M6k-125" vertex="1" connectable="0">
          <mxGeometry x="0.5167" y="1" relative="1" as="geometry">
            <mxPoint as="offset" />
          </mxGeometry>
        </mxCell>
        <mxCell id="I1Eal8p1mosymjfn8M6k-126" value="&lt;font size=&quot;3&quot;&gt;Employee&lt;/font&gt;" style="rounded=0;whiteSpace=wrap;html=1;" parent="1" vertex="1">
          <mxGeometry x="200" y="660" width="120" height="60" as="geometry" />
        </mxCell>
        <mxCell id="I1Eal8p1mosymjfn8M6k-127" value="Hiring" style="rhombus;whiteSpace=wrap;html=1;" parent="1" vertex="1">
          <mxGeometry x="215" y="550" width="90" height="60" as="geometry" />
        </mxCell>
        <mxCell id="I1Eal8p1mosymjfn8M6k-129" value="" style="endArrow=none;html=1;rounded=0;entryX=0.5;entryY=1;entryDx=0;entryDy=0;" parent="1" source="I1Eal8p1mosymjfn8M6k-126" target="I1Eal8p1mosymjfn8M6k-127" edge="1">
          <mxGeometry width="50" height="50" relative="1" as="geometry">
            <mxPoint x="200" y="740" as="sourcePoint" />
            <mxPoint x="250" y="690" as="targetPoint" />
          </mxGeometry>
        </mxCell>
        <mxCell id="I1Eal8p1mosymjfn8M6k-132" value="M" style="edgeLabel;html=1;align=center;verticalAlign=middle;resizable=0;points=[];" parent="I1Eal8p1mosymjfn8M6k-129" vertex="1" connectable="0">
          <mxGeometry x="-0.5133" y="-2" relative="1" as="geometry">
            <mxPoint as="offset" />
          </mxGeometry>
        </mxCell>
        <mxCell id="I1Eal8p1mosymjfn8M6k-139" value="Name" style="ellipse;whiteSpace=wrap;html=1;" parent="1" vertex="1">
          <mxGeometry x="230" y="760" width="100" height="50" as="geometry" />
        </mxCell>
        <mxCell id="I1Eal8p1mosymjfn8M6k-143" value="" style="endArrow=none;html=1;rounded=0;entryX=0.435;entryY=-0.043;entryDx=0;entryDy=0;entryPerimeter=0;" parent="1" source="I1Eal8p1mosymjfn8M6k-126" target="I1Eal8p1mosymjfn8M6k-139" edge="1">
          <mxGeometry width="50" height="50" relative="1" as="geometry">
            <mxPoint x="140" y="746" as="sourcePoint" />
            <mxPoint x="233" y="824" as="targetPoint" />
          </mxGeometry>
        </mxCell>
        <mxCell id="I1Eal8p1mosymjfn8M6k-144" value="LName" style="ellipse;whiteSpace=wrap;html=1;" parent="1" vertex="1">
          <mxGeometry x="160" y="840" width="100" height="50" as="geometry" />
        </mxCell>
        <mxCell id="I1Eal8p1mosymjfn8M6k-145" value="FName" style="ellipse;whiteSpace=wrap;html=1;" parent="1" vertex="1">
          <mxGeometry x="344" y="840" width="100" height="50" as="geometry" />
        </mxCell>
        <mxCell id="I1Eal8p1mosymjfn8M6k-146" value="" style="endArrow=none;html=1;rounded=0;entryX=0.596;entryY=0.014;entryDx=0;entryDy=0;entryPerimeter=0;" parent="1" source="I1Eal8p1mosymjfn8M6k-139" target="I1Eal8p1mosymjfn8M6k-144" edge="1">
          <mxGeometry width="50" height="50" relative="1" as="geometry">
            <mxPoint x="-20" y="790" as="sourcePoint" />
            <mxPoint x="73" y="868" as="targetPoint" />
          </mxGeometry>
        </mxCell>
        <mxCell id="I1Eal8p1mosymjfn8M6k-147" value="" style="endArrow=none;html=1;rounded=0;exitX=0.793;exitY=0.907;exitDx=0;exitDy=0;exitPerimeter=0;entryX=0.375;entryY=0.04;entryDx=0;entryDy=0;entryPerimeter=0;" parent="1" source="I1Eal8p1mosymjfn8M6k-139" target="I1Eal8p1mosymjfn8M6k-145" edge="1">
          <mxGeometry width="50" height="50" relative="1" as="geometry">
            <mxPoint x="294" y="752" as="sourcePoint" />
            <mxPoint x="387" y="830" as="targetPoint" />
          </mxGeometry>
        </mxCell>
        <mxCell id="I1Eal8p1mosymjfn8M6k-148" value="" style="endArrow=none;html=1;rounded=0;exitX=1;exitY=0.75;exitDx=0;exitDy=0;" parent="1" source="I1Eal8p1mosymjfn8M6k-126" target="I1Eal8p1mosymjfn8M6k-149" edge="1">
          <mxGeometry width="50" height="50" relative="1" as="geometry">
            <mxPoint x="294" y="730" as="sourcePoint" />
            <mxPoint x="350" y="770" as="targetPoint" />
          </mxGeometry>
        </mxCell>
        <mxCell id="I1Eal8p1mosymjfn8M6k-149" value="&lt;u&gt;SSN&lt;/u&gt;" style="ellipse;whiteSpace=wrap;html=1;" parent="1" vertex="1">
          <mxGeometry x="380" y="755" width="100" height="50" as="geometry" />
        </mxCell>
        <mxCell id="I1Eal8p1mosymjfn8M6k-152" value="" style="endArrow=none;html=1;rounded=0;entryX=0;entryY=0.5;entryDx=0;entryDy=0;" parent="1" source="I1Eal8p1mosymjfn8M6k-153" target="I1Eal8p1mosymjfn8M6k-57" edge="1">
          <mxGeometry width="50" height="50" relative="1" as="geometry">
            <mxPoint x="-400" y="560" as="sourcePoint" />
            <mxPoint x="-350" y="520" as="targetPoint" />
          </mxGeometry>
        </mxCell>
        <mxCell id="I1Eal8p1mosymjfn8M6k-153" value="MName" style="ellipse;whiteSpace=wrap;html=1;align=center;" parent="1" vertex="1">
          <mxGeometry x="-520" y="510" width="100" height="40" as="geometry" />
        </mxCell>
        <mxCell id="I1Eal8p1mosymjfn8M6k-158" value="Email" style="ellipse;whiteSpace=wrap;html=1;align=center;" parent="1" vertex="1">
          <mxGeometry x="-90" y="490" width="100" height="40" as="geometry" />
        </mxCell>
        <mxCell id="I1Eal8p1mosymjfn8M6k-159" value="Password" style="ellipse;whiteSpace=wrap;html=1;align=center;" parent="1" vertex="1">
          <mxGeometry x="-175" y="520" width="100" height="40" as="geometry" />
        </mxCell>
        <mxCell id="I1Eal8p1mosymjfn8M6k-160" value="" style="endArrow=none;html=1;rounded=0;entryX=0.083;entryY=0.217;entryDx=0;entryDy=0;entryPerimeter=0;" parent="1" target="I1Eal8p1mosymjfn8M6k-158" edge="1">
          <mxGeometry width="50" height="50" relative="1" as="geometry">
            <mxPoint x="-120" y="470" as="sourcePoint" />
            <mxPoint x="-110" y="490" as="targetPoint" />
          </mxGeometry>
        </mxCell>
        <mxCell id="I1Eal8p1mosymjfn8M6k-161" value="" style="endArrow=none;html=1;rounded=0;exitX=0.7;exitY=0.071;exitDx=0;exitDy=0;exitPerimeter=0;entryX=1;entryY=1;entryDx=0;entryDy=0;" parent="1" source="I1Eal8p1mosymjfn8M6k-159" target="I1Eal8p1mosymjfn8M6k-56" edge="1">
          <mxGeometry width="50" height="50" relative="1" as="geometry">
            <mxPoint x="-195" y="530" as="sourcePoint" />
            <mxPoint x="-190" y="490" as="targetPoint" />
          </mxGeometry>
        </mxCell>
        <mxCell id="I1Eal8p1mosymjfn8M6k-162" value="Password" style="ellipse;whiteSpace=wrap;html=1;align=center;" parent="1" vertex="1">
          <mxGeometry x="384" y="640" width="100" height="40" as="geometry" />
        </mxCell>
        <mxCell id="I1Eal8p1mosymjfn8M6k-163" value="Email" style="ellipse;whiteSpace=wrap;html=1;align=center;" parent="1" vertex="1">
          <mxGeometry x="384" y="690" width="100" height="40" as="geometry" />
        </mxCell>
        <mxCell id="I1Eal8p1mosymjfn8M6k-165" value="" style="endArrow=none;html=1;rounded=0;" parent="1" target="I1Eal8p1mosymjfn8M6k-163" edge="1">
          <mxGeometry width="50" height="50" relative="1" as="geometry">
            <mxPoint x="320" y="700" as="sourcePoint" />
            <mxPoint x="459" y="720" as="targetPoint" />
          </mxGeometry>
        </mxCell>
        <mxCell id="I1Eal8p1mosymjfn8M6k-166" value="Account" style="whiteSpace=wrap;html=1;align=center;" parent="1" vertex="1">
          <mxGeometry x="-250" y="920" width="100" height="40" as="geometry" />
        </mxCell>
        <mxCell id="I1Eal8p1mosymjfn8M6k-167" value="" style="endArrow=none;html=1;rounded=0;exitX=1;exitY=0.644;exitDx=0;exitDy=0;exitPerimeter=0;entryX=0;entryY=0.5;entryDx=0;entryDy=0;" parent="1" source="I1Eal8p1mosymjfn8M6k-126" target="I1Eal8p1mosymjfn8M6k-162" edge="1">
          <mxGeometry width="50" height="50" relative="1" as="geometry">
            <mxPoint x="384" y="720" as="sourcePoint" />
            <mxPoint x="434" y="670" as="targetPoint" />
          </mxGeometry>
        </mxCell>
        <mxCell id="I1Eal8p1mosymjfn8M6k-168" value="Balance" style="ellipse;whiteSpace=wrap;html=1;align=center;" parent="1" vertex="1">
          <mxGeometry x="-200" y="1000" width="100" height="40" as="geometry" />
        </mxCell>
        <mxCell id="I1Eal8p1mosymjfn8M6k-169" value="&lt;u&gt;AccountNumber&lt;/u&gt;" style="ellipse;whiteSpace=wrap;html=1;align=center;" parent="1" vertex="1">
          <mxGeometry x="-310" y="1020" width="100" height="40" as="geometry" />
        </mxCell>
        <mxCell id="I1Eal8p1mosymjfn8M6k-170" value="Type" style="ellipse;whiteSpace=wrap;html=1;align=center;" parent="1" vertex="1">
          <mxGeometry x="-400" y="1000" width="100" height="40" as="geometry" />
        </mxCell>
        <mxCell id="I1Eal8p1mosymjfn8M6k-173" value="" style="endArrow=none;html=1;rounded=0;exitX=0.325;exitY=0.008;exitDx=0;exitDy=0;exitPerimeter=0;entryX=0.64;entryY=1.075;entryDx=0;entryDy=0;entryPerimeter=0;" parent="1" source="I1Eal8p1mosymjfn8M6k-168" target="I1Eal8p1mosymjfn8M6k-166" edge="1">
          <mxGeometry width="50" height="50" relative="1" as="geometry">
            <mxPoint x="-160" y="1030" as="sourcePoint" />
            <mxPoint x="-250" y="960" as="targetPoint" />
          </mxGeometry>
        </mxCell>
        <mxCell id="I1Eal8p1mosymjfn8M6k-174" value="" style="endArrow=none;html=1;rounded=0;entryX=0.401;entryY=1.106;entryDx=0;entryDy=0;entryPerimeter=0;exitX=0.5;exitY=0;exitDx=0;exitDy=0;" parent="1" source="I1Eal8p1mosymjfn8M6k-169" target="I1Eal8p1mosymjfn8M6k-166" edge="1">
          <mxGeometry width="50" height="50" relative="1" as="geometry">
            <mxPoint x="-250" y="1020" as="sourcePoint" />
            <mxPoint x="-200" y="950" as="targetPoint" />
          </mxGeometry>
        </mxCell>
        <mxCell id="I1Eal8p1mosymjfn8M6k-178" value="" style="endArrow=none;html=1;rounded=0;entryX=0.17;entryY=1.025;entryDx=0;entryDy=0;entryPerimeter=0;" parent="1" target="I1Eal8p1mosymjfn8M6k-166" edge="1">
          <mxGeometry width="50" height="50" relative="1" as="geometry">
            <mxPoint x="-325" y="1000" as="sourcePoint" />
            <mxPoint x="-250" y="960" as="targetPoint" />
          </mxGeometry>
        </mxCell>
        <mxCell id="I1Eal8p1mosymjfn8M6k-183" style="edgeStyle=orthogonalEdgeStyle;rounded=0;orthogonalLoop=1;jettySize=auto;html=1;endArrow=none;endFill=0;entryX=0.25;entryY=1;entryDx=0;entryDy=0;exitX=0.5;exitY=0;exitDx=0;exitDy=0;" parent="1" source="I1Eal8p1mosymjfn8M6k-180" target="I1Eal8p1mosymjfn8M6k-26" edge="1">
          <mxGeometry relative="1" as="geometry">
            <mxPoint x="250" y="510" as="targetPoint" />
            <Array as="points">
              <mxPoint x="90" y="540" />
              <mxPoint x="230" y="540" />
              <mxPoint x="230" y="490" />
            </Array>
          </mxGeometry>
        </mxCell>
        <mxCell id="I1Eal8p1mosymjfn8M6k-185" value="&lt;font style=&quot;font-size: 14px;&quot;&gt;N&lt;/font&gt;" style="edgeLabel;html=1;align=center;verticalAlign=middle;resizable=0;points=[];" parent="I1Eal8p1mosymjfn8M6k-183" vertex="1" connectable="0">
          <mxGeometry x="-0.4842" y="3" relative="1" as="geometry">
            <mxPoint x="3" y="-60" as="offset" />
          </mxGeometry>
        </mxCell>
        <mxCell id="I1Eal8p1mosymjfn8M6k-184" style="edgeStyle=orthogonalEdgeStyle;rounded=0;orthogonalLoop=1;jettySize=auto;html=1;entryX=1;entryY=0.5;entryDx=0;entryDy=0;shape=link;" parent="1" source="I1Eal8p1mosymjfn8M6k-180" target="I1Eal8p1mosymjfn8M6k-166" edge="1">
          <mxGeometry relative="1" as="geometry">
            <Array as="points">
              <mxPoint x="90" y="940" />
            </Array>
          </mxGeometry>
        </mxCell>
        <mxCell id="I1Eal8p1mosymjfn8M6k-186" value="&lt;font style=&quot;font-size: 14px;&quot;&gt;M&lt;/font&gt;" style="edgeLabel;html=1;align=center;verticalAlign=middle;resizable=0;points=[];" parent="I1Eal8p1mosymjfn8M6k-184" vertex="1" connectable="0">
          <mxGeometry x="0.7412" y="-5" relative="1" as="geometry">
            <mxPoint as="offset" />
          </mxGeometry>
        </mxCell>
        <mxCell id="I1Eal8p1mosymjfn8M6k-180" value="maintain" style="shape=rhombus;perimeter=rhombusPerimeter;whiteSpace=wrap;html=1;align=center;" parent="1" vertex="1">
          <mxGeometry x="30" y="730" width="120" height="60" as="geometry" />
        </mxCell>
        <mxCell id="I1Eal8p1mosymjfn8M6k-192" style="edgeStyle=orthogonalEdgeStyle;rounded=0;orthogonalLoop=1;jettySize=auto;html=1;entryX=0.34;entryY=0.978;entryDx=0;entryDy=0;entryPerimeter=0;endArrow=none;endFill=0;shape=link;" parent="1" source="I1Eal8p1mosymjfn8M6k-189" target="I1Eal8p1mosymjfn8M6k-56" edge="1">
          <mxGeometry relative="1" as="geometry" />
        </mxCell>
        <mxCell id="I1Eal8p1mosymjfn8M6k-195" value="1" style="edgeLabel;html=1;align=center;verticalAlign=middle;resizable=0;points=[];" parent="I1Eal8p1mosymjfn8M6k-192" vertex="1" connectable="0">
          <mxGeometry x="0.8504" y="1" relative="1" as="geometry">
            <mxPoint as="offset" />
          </mxGeometry>
        </mxCell>
        <mxCell id="I1Eal8p1mosymjfn8M6k-193" style="edgeStyle=orthogonalEdgeStyle;rounded=0;orthogonalLoop=1;jettySize=auto;html=1;entryX=0.5;entryY=0;entryDx=0;entryDy=0;shape=link;" parent="1" source="I1Eal8p1mosymjfn8M6k-189" target="I1Eal8p1mosymjfn8M6k-166" edge="1">
          <mxGeometry relative="1" as="geometry" />
        </mxCell>
        <mxCell id="I1Eal8p1mosymjfn8M6k-197" value="M" style="edgeLabel;html=1;align=center;verticalAlign=middle;resizable=0;points=[];" parent="I1Eal8p1mosymjfn8M6k-193" vertex="1" connectable="0">
          <mxGeometry x="0.3138" y="-2" relative="1" as="geometry">
            <mxPoint as="offset" />
          </mxGeometry>
        </mxCell>
        <mxCell id="I1Eal8p1mosymjfn8M6k-189" value="has" style="shape=rhombus;perimeter=rhombusPerimeter;whiteSpace=wrap;html=1;align=center;" parent="1" vertex="1">
          <mxGeometry x="-260" y="755" width="120" height="60" as="geometry" />
        </mxCell>
        <mxCell id="I1Eal8p1mosymjfn8M6k-198" value="Load" style="shape=ext;margin=3;double=1;whiteSpace=wrap;html=1;align=center;" parent="1" vertex="1">
          <mxGeometry x="-240" y="120" width="120" height="50" as="geometry" />
        </mxCell>
        <mxCell id="I1Eal8p1mosymjfn8M6k-199" value="&lt;span style=&quot;border-bottom: 1px dotted&quot;&gt;LoanNumber&lt;/span&gt;" style="ellipse;whiteSpace=wrap;html=1;align=center;" parent="1" vertex="1">
          <mxGeometry x="-330" y="29" width="100" height="40" as="geometry" />
        </mxCell>
        <mxCell id="I1Eal8p1mosymjfn8M6k-203" value="MName" style="ellipse;whiteSpace=wrap;html=1;" parent="1" vertex="1">
          <mxGeometry x="260" y="880" width="100" height="50" as="geometry" />
        </mxCell>
        <mxCell id="I1Eal8p1mosymjfn8M6k-204" value="" style="endArrow=none;html=1;rounded=0;entryX=0.5;entryY=0;entryDx=0;entryDy=0;exitX=0.5;exitY=1;exitDx=0;exitDy=0;" parent="1" source="I1Eal8p1mosymjfn8M6k-139" target="I1Eal8p1mosymjfn8M6k-203" edge="1">
          <mxGeometry width="50" height="50" relative="1" as="geometry">
            <mxPoint x="279" y="819" as="sourcePoint" />
            <mxPoint x="260" y="861" as="targetPoint" />
          </mxGeometry>
        </mxCell>
      </root>
    </mxGraphModel>
  </diagram>
</mxfile>
